<svg width="126" height="131" viewBox="0 0 126 131" fill="none" xmlns="http://www.w3.org/2000/svg">
<path fill-rule="evenodd" clip-rule="evenodd" d="M63 0C75.4597 0 87.6388 3.84068 97.9994 11.0397C108.36 18.2358 116.435 28.4657 121.203 40.4343C125.971 52.4029 127.22 65.5744 124.789 78.2784C122.357 90.9854 116.358 102.656 107.547 111.814C98.7353 120.975 87.5099 127.216 75.2907 129.741C63.0687 132.268 50.4029 130.973 38.8911 126.016C27.3792 121.056 17.5398 112.663 10.6155 101.891C3.69409 91.1194 0 78.4541 0 65.5C0 48.1306 6.63505 31.4697 18.4504 19.1855C30.2658 6.90131 46.2907 0 63 0Z" fill="#7B6CEB"/>
<path fill-rule="evenodd" clip-rule="evenodd" d="M16.3943 65.5C16.3943 59.1375 17.5999 52.8376 19.9424 46.9575C22.2848 41.0804 25.7183 35.7392 30.0453 31.2375C34.3722 26.7389 39.5096 23.1691 45.1653 20.7337C50.8181 18.3013 56.8776 17.0479 63 17.0479C69.1196 17.0479 75.1791 18.3013 80.8348 20.7337C86.4876 23.1691 91.6249 26.7389 95.9548 31.2375C100.282 35.7392 103.715 41.0804 106.055 46.9575C108.397 52.8376 109.603 59.1375 109.603 65.5C110.219 63.7523 111.332 62.2428 112.799 61.177C114.265 60.1111 116.012 59.5395 117.801 59.5395C119.591 59.5395 121.338 60.1111 122.804 61.177C124.27 62.2428 125.384 63.7523 126 65.5C126 48.1306 119.362 31.4697 107.547 19.1855C95.7314 6.90131 79.7065 0 63 0C46.2907 0 30.2658 6.90131 18.4504 19.1855C6.63505 31.4697 0 48.1306 0 65.5C0.612818 63.7523 1.72677 62.2428 3.19582 61.177C4.662 60.1111 6.40596 59.5395 8.19573 59.5395C9.9855 59.5395 11.7323 60.1111 13.1985 61.177C14.6647 62.2428 15.7815 63.7523 16.3943 65.5Z" fill="#6A5AE0"/>
<g style="mix-blend-mode:screen">
<path fill-rule="evenodd" clip-rule="evenodd" d="M61.8042 15.7747C71.0274 15.7744 80.0436 18.618 87.7121 23.9455C95.381 29.2727 101.358 36.8448 104.888 45.704C108.417 54.5631 109.341 64.3116 107.541 73.7165C105.742 83.1214 101.301 91.7603 94.779 98.541C88.2571 105.321 79.948 109.939 70.902 111.81C61.8561 113.681 52.4797 112.721 43.9586 109.051C35.4376 105.381 28.1545 99.1668 23.0306 91.1937C17.9064 83.2208 15.1713 73.8469 15.1716 64.2577C15.1716 51.3992 20.0848 39.0673 28.83 29.975C37.5753 20.8828 49.4365 15.7747 61.8042 15.7747Z" fill="#6A5AE0"/>
</g>
<path fill-rule="evenodd" clip-rule="evenodd" d="M63 17.0479C72.218 17.0479 81.227 19.8882 88.8901 25.2115C96.5561 30.5379 102.53 38.1031 106.058 46.9575C109.583 55.8119 110.508 65.5535 108.709 74.9528C106.911 84.352 102.472 92.9861 95.9547 99.7624C89.4371 106.539 81.1325 111.153 72.092 113.023C63.0515 114.893 53.6817 113.934 45.1652 110.266C36.6488 106.598 29.3694 100.388 24.2492 92.4204C19.1291 84.4533 16.3943 75.0838 16.3943 65.4999C16.3943 52.65 21.3054 40.3242 30.0452 31.2375C38.7851 22.1509 50.6377 17.0479 63 17.0479Z" fill="#6A5AE0"/>
<g style="mix-blend-mode:screen">
<path fill-rule="evenodd" clip-rule="evenodd" d="M24.6673 93.0665L89.5144 25.6462C83.9876 21.6805 77.7048 19.0009 71.0926 17.7862C64.4805 16.5715 57.6937 16.8543 51.1961 18.6139L17.9006 53.2306C16.211 59.986 15.939 67.0422 17.1073 73.9167C18.2728 80.7912 20.853 87.3233 24.6673 93.0665Z" fill="#6A5AE0"/>
</g>
<g style="mix-blend-mode:screen">
<path fill-rule="evenodd" clip-rule="evenodd" d="M105.728 47.9311L46.1016 109.924L45.5862 110.46C50.5603 112.541 55.8437 113.714 61.2016 113.919L62.3385 112.74L108.434 64.8122L109.568 63.6332C109.371 58.0627 108.245 52.5697 106.241 47.3981L105.728 47.9311Z" fill="#6A5AE0"/>
</g>
<path fill-rule="evenodd" clip-rule="evenodd" d="M63 1.70598C75.1361 1.70598 86.9973 5.44543 97.0888 12.4569C107.18 19.4654 115.044 29.4303 119.689 41.0863C124.333 52.7453 125.548 65.5714 123.179 77.9479C120.814 90.3215 114.969 101.689 106.387 110.612C97.8047 119.531 86.8713 125.608 74.97 128.07C63.0659 130.532 50.7293 129.267 39.5182 124.441C28.3042 119.612 18.7225 111.433 11.9786 100.944C5.23759 90.4525 1.638 78.1176 1.638 65.5C1.638 57.1219 3.22446 48.8272 6.30859 41.0863C9.39273 33.3484 13.9115 26.3131 19.6102 20.3913C25.3088 14.4666 32.0727 9.76842 39.5182 6.5619C46.9608 3.35538 54.9417 1.70598 63 1.70598ZM63 0C75.4597 0 87.6388 3.84068 97.9994 11.0397C108.36 18.2358 116.435 28.4657 121.203 40.4343C125.971 52.4029 127.22 65.5744 124.789 78.2784C122.357 90.9854 116.358 102.656 107.547 111.814C98.7353 120.975 87.5099 127.216 75.2907 129.741C63.0687 132.268 50.4029 130.973 38.8911 126.016C27.3792 121.056 17.5398 112.663 10.6155 101.891C3.69409 91.1194 0 78.4541 0 65.5C0 48.1306 6.63505 31.4697 18.4504 19.1855C30.2658 6.90131 46.2907 0 63 0Z" fill="#6A5AE0"/>
<g style="mix-blend-mode:screen">
<path fill-rule="evenodd" clip-rule="evenodd" d="M3.12988 51.4546C6.7805 37.8648 14.6083 25.8905 25.4185 17.3601C36.2287 8.82988 49.4272 4.21201 62.9986 4.21201C76.5699 4.21201 89.7681 8.82988 100.578 17.3601C111.389 25.8905 119.217 37.8648 122.867 51.4546C119.798 37.3301 112.199 24.7112 101.319 15.6702C90.44 6.62938 76.9264 1.70447 62.9986 1.70447C49.0707 1.70447 35.5572 6.62938 24.6774 15.6702C13.7979 24.7112 6.19919 37.3301 3.12988 51.4546Z" fill="#6A5AE0"/>
</g>
<mask id="path-9-outside-1_63_344" maskUnits="userSpaceOnUse" x="28" y="31" width="73" height="73" fill="black">
<rect fill="white" x="28" y="31" width="73" height="73"/>
<path d="M60.1857 32C59.8198 32.0002 59.4659 32.1303 59.1871 32.3672C58.9082 32.6041 58.7226 32.9323 58.6632 33.2933L57.1618 42.4848C55.3564 43.0099 53.6349 43.7185 52.0124 44.6011L44.4271 39.1838C44.1301 38.9718 43.7676 38.8718 43.4039 38.9016C43.0401 38.9314 42.6988 39.089 42.4403 39.3466L36.4347 45.3457C36.178 45.6025 36.0201 45.9415 35.9887 46.3032C35.9572 46.6648 36.0543 47.026 36.2628 47.3232L41.5991 54.9562C40.7029 56.588 39.9785 58.3191 39.4405 60.1413L30.2873 61.6637C29.9274 61.7243 29.6006 61.9105 29.3649 62.1892C29.1292 62.4679 29 62.8211 29 63.1861V71.6752C28.9993 72.038 29.1265 72.3895 29.3592 72.6679C29.5918 72.9462 29.9151 73.1338 30.2723 73.1976L39.4314 74.8195C39.9666 76.6385 40.6863 78.3708 41.584 80.0046L36.1814 87.5622C35.9693 87.8592 35.8693 88.2216 35.8991 88.5853C35.9289 88.949 36.0866 89.2904 36.3442 89.5488L42.3468 95.5539C42.6031 95.8102 42.9413 95.9682 43.3024 96.0002C43.6634 96.0321 44.0242 95.9361 44.3215 95.7288L51.9702 90.3748C53.5975 91.2626 55.3232 91.9764 57.1347 92.5062L58.6632 101.71C58.7232 102.07 58.9091 102.398 59.1879 102.634C59.4667 102.87 59.8203 103 60.1857 103H68.6756C69.0388 103.001 69.3907 102.873 69.6691 102.64C69.9476 102.406 70.1349 102.083 70.1981 101.725L71.8352 92.4851C73.6391 91.9471 75.3568 91.2228 76.9755 90.3296L84.6755 95.7318C84.9727 95.9403 85.3339 96.0373 85.6956 96.0059C86.0573 95.9745 86.3964 95.8166 86.6532 95.56L92.6558 89.5518C92.9145 89.2926 93.0726 88.9499 93.1018 88.5849C93.1311 88.2198 93.0297 87.8563 92.8156 87.5592L87.3255 79.9383C88.2033 78.3274 88.9105 76.6202 89.4359 74.8285L98.7247 73.2006C99.0824 73.1375 99.4064 72.9502 99.6397 72.6717C99.8729 72.3933 100.001 72.0415 100 71.6782V63.1891C99.9998 62.8233 99.8697 62.4694 99.6328 62.1905C99.3959 61.9117 99.0677 61.7261 98.7066 61.6667L89.4329 60.1504C88.904 58.3608 88.1948 56.6566 87.3165 55.0467L92.7312 47.3323C92.9397 47.0351 93.0367 46.6739 93.0053 46.3122C92.9739 45.9505 92.816 45.6115 92.5593 45.3547L86.5537 39.3526C86.2945 39.094 85.9517 38.9359 85.5867 38.9066C85.2216 38.8773 84.858 38.9788 84.5609 39.1929L76.9604 44.6583C75.3411 43.7687 73.6223 43.0482 71.8141 42.5149L70.1981 33.2782C70.1355 32.9199 69.9485 32.5953 69.67 32.3614C69.3914 32.1276 69.0393 31.9996 68.6756 32H60.1857ZM61.5002 35.087H67.3792L68.9168 43.8625C68.9679 44.1568 69.1034 44.43 69.3068 44.6488C69.5101 44.8677 69.7726 45.0228 70.0624 45.0954C72.32 45.658 74.4402 46.5497 76.3755 47.7212C76.6343 47.8779 76.9334 47.9552 77.2357 47.9434C77.538 47.9316 77.8302 47.8313 78.0759 47.6549L85.2995 42.4637L89.457 46.6208L84.3137 53.9493C84.1419 54.1938 84.0448 54.4829 84.034 54.7815C84.0233 55.0801 84.0995 55.3754 84.2534 55.6315C85.4134 57.5623 86.2932 59.669 86.8552 61.9139C86.9284 62.2063 87.0856 62.4709 87.3074 62.675C87.5292 62.8791 87.8059 63.0138 88.1034 63.0625L96.9128 64.5035V70.382L88.0853 71.9315C87.7907 71.9836 87.5176 72.1202 87.2992 72.3246C87.0809 72.5291 86.9266 72.7926 86.8552 73.083C86.2997 75.3252 85.4194 77.4318 84.2594 79.3625C84.1037 79.6212 84.0273 79.9198 84.0396 80.2215C84.0519 80.5231 84.1525 80.8146 84.3287 81.0597L89.5445 88.2978L85.387 92.4579L78.0699 87.324C77.8242 87.152 77.5336 87.0552 77.2338 87.0455C76.934 87.0359 76.6378 87.1138 76.3816 87.2698C74.4559 88.4413 72.3334 89.3372 70.0835 89.9076C69.7951 89.9803 69.5338 90.1347 69.3311 90.3524C69.1284 90.5701 68.9929 90.8417 68.9409 91.1345L67.3822 99.913H61.4942L60.041 91.1737C59.9916 90.8764 59.8562 90.6001 59.6515 90.3789C59.4468 90.1576 59.1819 90.0011 58.8893 89.9287C56.6305 89.3719 54.5006 88.4816 52.5521 87.312C52.2963 87.1588 52.0015 87.083 51.7035 87.0937C51.4055 87.1044 51.117 87.2011 50.8728 87.3723L43.613 92.4579L39.4525 88.2917L44.5838 81.12C44.7592 80.8743 44.8587 80.5825 44.8699 80.2809C44.8812 79.9792 44.8037 79.6809 44.6471 79.4228C43.4647 77.4691 42.5704 75.3397 42.0061 73.071C41.9339 72.782 41.7796 72.5201 41.5619 72.3169C41.3442 72.1136 41.0723 71.9777 40.7791 71.9254L32.0872 70.382V64.4944L40.773 63.0504C41.07 63.0012 41.346 62.8663 41.5672 62.6622C41.7885 62.4581 41.9452 62.1939 42.0182 61.9019C42.5873 59.6254 43.4812 57.4963 44.6592 55.5471C44.8145 55.2912 44.8921 54.9956 44.8825 54.6964C44.8728 54.3972 44.7764 54.1073 44.6049 53.8619L39.5339 46.6148L43.6975 42.4547L50.8939 47.5976C51.1388 47.7721 51.4292 47.8714 51.7297 47.8832C52.0302 47.895 52.3275 47.8187 52.5853 47.6639C54.5235 46.4999 56.6583 45.6167 58.9195 45.0623C59.2134 44.9899 59.4796 44.8328 59.6849 44.6103C59.8902 44.3879 60.0256 44.11 60.0742 43.8112L61.5002 35.087ZM64.5 55.1522C57.6982 55.1522 52.1511 60.6988 52.1511 67.5C52.1511 74.3012 57.6982 79.8478 64.5 79.8478C71.3018 79.8478 76.8489 74.3012 76.8489 67.5C76.8489 60.6988 71.3018 55.1522 64.5 55.1522ZM64.5 58.2391C69.6334 58.2391 73.7617 62.3671 73.7617 67.5C73.7617 72.6329 69.6334 76.7609 64.5 76.7609C59.3666 76.7609 55.2383 72.6329 55.2383 67.5C55.2383 62.3671 59.3666 58.2391 64.5 58.2391Z"/>
</mask>
<path d="M60.1857 32C59.8198 32.0002 59.4659 32.1303 59.1871 32.3672C58.9082 32.6041 58.7226 32.9323 58.6632 33.2933L57.1618 42.4848C55.3564 43.0099 53.6349 43.7185 52.0124 44.6011L44.4271 39.1838C44.1301 38.9718 43.7676 38.8718 43.4039 38.9016C43.0401 38.9314 42.6988 39.089 42.4403 39.3466L36.4347 45.3457C36.178 45.6025 36.0201 45.9415 35.9887 46.3032C35.9572 46.6648 36.0543 47.026 36.2628 47.3232L41.5991 54.9562C40.7029 56.588 39.9785 58.3191 39.4405 60.1413L30.2873 61.6637C29.9274 61.7243 29.6006 61.9105 29.3649 62.1892C29.1292 62.4679 29 62.8211 29 63.1861V71.6752C28.9993 72.038 29.1265 72.3895 29.3592 72.6679C29.5918 72.9462 29.9151 73.1338 30.2723 73.1976L39.4314 74.8195C39.9666 76.6385 40.6863 78.3708 41.584 80.0046L36.1814 87.5622C35.9693 87.8592 35.8693 88.2216 35.8991 88.5853C35.9289 88.949 36.0866 89.2904 36.3442 89.5488L42.3468 95.5539C42.6031 95.8102 42.9413 95.9682 43.3024 96.0002C43.6634 96.0321 44.0242 95.9361 44.3215 95.7288L51.9702 90.3748C53.5975 91.2626 55.3232 91.9764 57.1347 92.5062L58.6632 101.71C58.7232 102.07 58.9091 102.398 59.1879 102.634C59.4667 102.87 59.8203 103 60.1857 103H68.6756C69.0388 103.001 69.3907 102.873 69.6691 102.64C69.9476 102.406 70.1349 102.083 70.1981 101.725L71.8352 92.4851C73.6391 91.9471 75.3568 91.2228 76.9755 90.3296L84.6755 95.7318C84.9727 95.9403 85.3339 96.0373 85.6956 96.0059C86.0573 95.9745 86.3964 95.8166 86.6532 95.56L92.6558 89.5518C92.9145 89.2926 93.0726 88.9499 93.1018 88.5849C93.1311 88.2198 93.0297 87.8563 92.8156 87.5592L87.3255 79.9383C88.2033 78.3274 88.9105 76.6202 89.4359 74.8285L98.7247 73.2006C99.0824 73.1375 99.4064 72.9502 99.6397 72.6717C99.8729 72.3933 100.001 72.0415 100 71.6782V63.1891C99.9998 62.8233 99.8697 62.4694 99.6328 62.1905C99.3959 61.9117 99.0677 61.7261 98.7066 61.6667L89.4329 60.1504C88.904 58.3608 88.1948 56.6566 87.3165 55.0467L92.7312 47.3323C92.9397 47.0351 93.0367 46.6739 93.0053 46.3122C92.9739 45.9505 92.816 45.6115 92.5593 45.3547L86.5537 39.3526C86.2945 39.094 85.9517 38.9359 85.5867 38.9066C85.2216 38.8773 84.858 38.9788 84.5609 39.1929L76.9604 44.6583C75.3411 43.7687 73.6223 43.0482 71.8141 42.5149L70.1981 33.2782C70.1355 32.9199 69.9485 32.5953 69.67 32.3614C69.3914 32.1276 69.0393 31.9996 68.6756 32H60.1857ZM61.5002 35.087H67.3792L68.9168 43.8625C68.9679 44.1568 69.1034 44.43 69.3068 44.6488C69.5101 44.8677 69.7726 45.0228 70.0624 45.0954C72.32 45.658 74.4402 46.5497 76.3755 47.7212C76.6343 47.8779 76.9334 47.9552 77.2357 47.9434C77.538 47.9316 77.8302 47.8313 78.0759 47.6549L85.2995 42.4637L89.457 46.6208L84.3137 53.9493C84.1419 54.1938 84.0448 54.4829 84.034 54.7815C84.0233 55.0801 84.0995 55.3754 84.2534 55.6315C85.4134 57.5623 86.2932 59.669 86.8552 61.9139C86.9284 62.2063 87.0856 62.4709 87.3074 62.675C87.5292 62.8791 87.8059 63.0138 88.1034 63.0625L96.9128 64.5035V70.382L88.0853 71.9315C87.7907 71.9836 87.5176 72.1202 87.2992 72.3246C87.0809 72.5291 86.9266 72.7926 86.8552 73.083C86.2997 75.3252 85.4194 77.4318 84.2594 79.3625C84.1037 79.6212 84.0273 79.9198 84.0396 80.2215C84.0519 80.5231 84.1525 80.8146 84.3287 81.0597L89.5445 88.2978L85.387 92.4579L78.0699 87.324C77.8242 87.152 77.5336 87.0552 77.2338 87.0455C76.934 87.0359 76.6378 87.1138 76.3816 87.2698C74.4559 88.4413 72.3334 89.3372 70.0835 89.9076C69.7951 89.9803 69.5338 90.1347 69.3311 90.3524C69.1284 90.5701 68.9929 90.8417 68.9409 91.1345L67.3822 99.913H61.4942L60.041 91.1737C59.9916 90.8764 59.8562 90.6001 59.6515 90.3789C59.4468 90.1576 59.1819 90.0011 58.8893 89.9287C56.6305 89.3719 54.5006 88.4816 52.5521 87.312C52.2963 87.1588 52.0015 87.083 51.7035 87.0937C51.4055 87.1044 51.117 87.2011 50.8728 87.3723L43.613 92.4579L39.4525 88.2917L44.5838 81.12C44.7592 80.8743 44.8587 80.5825 44.8699 80.2809C44.8812 79.9792 44.8037 79.6809 44.6471 79.4228C43.4647 77.4691 42.5704 75.3397 42.0061 73.071C41.9339 72.782 41.7796 72.5201 41.5619 72.3169C41.3442 72.1136 41.0723 71.9777 40.7791 71.9254L32.0872 70.382V64.4944L40.773 63.0504C41.07 63.0012 41.346 62.8663 41.5672 62.6622C41.7885 62.4581 41.9452 62.1939 42.0182 61.9019C42.5873 59.6254 43.4812 57.4963 44.6592 55.5471C44.8145 55.2912 44.8921 54.9956 44.8825 54.6964C44.8728 54.3972 44.7764 54.1073 44.6049 53.8619L39.5339 46.6148L43.6975 42.4547L50.8939 47.5976C51.1388 47.7721 51.4292 47.8714 51.7297 47.8832C52.0302 47.895 52.3275 47.8187 52.5853 47.6639C54.5235 46.4999 56.6583 45.6167 58.9195 45.0623C59.2134 44.9899 59.4796 44.8328 59.6849 44.6103C59.8902 44.3879 60.0256 44.11 60.0742 43.8112L61.5002 35.087ZM64.5 55.1522C57.6982 55.1522 52.1511 60.6988 52.1511 67.5C52.1511 74.3012 57.6982 79.8478 64.5 79.8478C71.3018 79.8478 76.8489 74.3012 76.8489 67.5C76.8489 60.6988 71.3018 55.1522 64.5 55.1522ZM64.5 58.2391C69.6334 58.2391 73.7617 62.3671 73.7617 67.5C73.7617 72.6329 69.6334 76.7609 64.5 76.7609C59.3666 76.7609 55.2383 72.6329 55.2383 67.5C55.2383 62.3671 59.3666 58.2391 64.5 58.2391Z" fill="#A7A7A7"/>
<path d="M60.1857 32C59.8198 32.0002 59.4659 32.1303 59.1871 32.3672C58.9082 32.6041 58.7226 32.9323 58.6632 33.2933L57.1618 42.4848C55.3564 43.0099 53.6349 43.7185 52.0124 44.6011L44.4271 39.1838C44.1301 38.9718 43.7676 38.8718 43.4039 38.9016C43.0401 38.9314 42.6988 39.089 42.4403 39.3466L36.4347 45.3457C36.178 45.6025 36.0201 45.9415 35.9887 46.3032C35.9572 46.6648 36.0543 47.026 36.2628 47.3232L41.5991 54.9562C40.7029 56.588 39.9785 58.3191 39.4405 60.1413L30.2873 61.6637C29.9274 61.7243 29.6006 61.9105 29.3649 62.1892C29.1292 62.4679 29 62.8211 29 63.1861V71.6752C28.9993 72.038 29.1265 72.3895 29.3592 72.6679C29.5918 72.9462 29.9151 73.1338 30.2723 73.1976L39.4314 74.8195C39.9666 76.6385 40.6863 78.3708 41.584 80.0046L36.1814 87.5622C35.9693 87.8592 35.8693 88.2216 35.8991 88.5853C35.9289 88.949 36.0866 89.2904 36.3442 89.5488L42.3468 95.5539C42.6031 95.8102 42.9413 95.9682 43.3024 96.0002C43.6634 96.0321 44.0242 95.9361 44.3215 95.7288L51.9702 90.3748C53.5975 91.2626 55.3232 91.9764 57.1347 92.5062L58.6632 101.71C58.7232 102.07 58.9091 102.398 59.1879 102.634C59.4667 102.87 59.8203 103 60.1857 103H68.6756C69.0388 103.001 69.3907 102.873 69.6691 102.64C69.9476 102.406 70.1349 102.083 70.1981 101.725L71.8352 92.4851C73.6391 91.9471 75.3568 91.2228 76.9755 90.3296L84.6755 95.7318C84.9727 95.9403 85.3339 96.0373 85.6956 96.0059C86.0573 95.9745 86.3964 95.8166 86.6532 95.56L92.6558 89.5518C92.9145 89.2926 93.0726 88.9499 93.1018 88.5849C93.1311 88.2198 93.0297 87.8563 92.8156 87.5592L87.3255 79.9383C88.2033 78.3274 88.9105 76.6202 89.4359 74.8285L98.7247 73.2006C99.0824 73.1375 99.4064 72.9502 99.6397 72.6717C99.8729 72.3933 100.001 72.0415 100 71.6782V63.1891C99.9998 62.8233 99.8697 62.4694 99.6328 62.1905C99.3959 61.9117 99.0677 61.7261 98.7066 61.6667L89.4329 60.1504C88.904 58.3608 88.1948 56.6566 87.3165 55.0467L92.7312 47.3323C92.9397 47.0351 93.0367 46.6739 93.0053 46.3122C92.9739 45.9505 92.816 45.6115 92.5593 45.3547L86.5537 39.3526C86.2945 39.094 85.9517 38.9359 85.5867 38.9066C85.2216 38.8773 84.858 38.9788 84.5609 39.1929L76.9604 44.6583C75.3411 43.7687 73.6223 43.0482 71.8141 42.5149L70.1981 33.2782C70.1355 32.9199 69.9485 32.5953 69.67 32.3614C69.3914 32.1276 69.0393 31.9996 68.6756 32H60.1857ZM61.5002 35.087H67.3792L68.9168 43.8625C68.9679 44.1568 69.1034 44.43 69.3068 44.6488C69.5101 44.8677 69.7726 45.0228 70.0624 45.0954C72.32 45.658 74.4402 46.5497 76.3755 47.7212C76.6343 47.8779 76.9334 47.9552 77.2357 47.9434C77.538 47.9316 77.8302 47.8313 78.0759 47.6549L85.2995 42.4637L89.457 46.6208L84.3137 53.9493C84.1419 54.1938 84.0448 54.4829 84.034 54.7815C84.0233 55.0801 84.0995 55.3754 84.2534 55.6315C85.4134 57.5623 86.2932 59.669 86.8552 61.9139C86.9284 62.2063 87.0856 62.4709 87.3074 62.675C87.5292 62.8791 87.8059 63.0138 88.1034 63.0625L96.9128 64.5035V70.382L88.0853 71.9315C87.7907 71.9836 87.5176 72.1202 87.2992 72.3246C87.0809 72.5291 86.9266 72.7926 86.8552 73.083C86.2997 75.3252 85.4194 77.4318 84.2594 79.3625C84.1037 79.6212 84.0273 79.9198 84.0396 80.2215C84.0519 80.5231 84.1525 80.8146 84.3287 81.0597L89.5445 88.2978L85.387 92.4579L78.0699 87.324C77.8242 87.152 77.5336 87.0552 77.2338 87.0455C76.934 87.0359 76.6378 87.1138 76.3816 87.2698C74.4559 88.4413 72.3334 89.3372 70.0835 89.9076C69.7951 89.9803 69.5338 90.1347 69.3311 90.3524C69.1284 90.5701 68.9929 90.8417 68.9409 91.1345L67.3822 99.913H61.4942L60.041 91.1737C59.9916 90.8764 59.8562 90.6001 59.6515 90.3789C59.4468 90.1576 59.1819 90.0011 58.8893 89.9287C56.6305 89.3719 54.5006 88.4816 52.5521 87.312C52.2963 87.1588 52.0015 87.083 51.7035 87.0937C51.4055 87.1044 51.117 87.2011 50.8728 87.3723L43.613 92.4579L39.4525 88.2917L44.5838 81.12C44.7592 80.8743 44.8587 80.5825 44.8699 80.2809C44.8812 79.9792 44.8037 79.6809 44.6471 79.4228C43.4647 77.4691 42.5704 75.3397 42.0061 73.071C41.9339 72.782 41.7796 72.5201 41.5619 72.3169C41.3442 72.1136 41.0723 71.9777 40.7791 71.9254L32.0872 70.382V64.4944L40.773 63.0504C41.07 63.0012 41.346 62.8663 41.5672 62.6622C41.7885 62.4581 41.9452 62.1939 42.0182 61.9019C42.5873 59.6254 43.4812 57.4963 44.6592 55.5471C44.8145 55.2912 44.8921 54.9956 44.8825 54.6964C44.8728 54.3972 44.7764 54.1073 44.6049 53.8619L39.5339 46.6148L43.6975 42.4547L50.8939 47.5976C51.1388 47.7721 51.4292 47.8714 51.7297 47.8832C52.0302 47.895 52.3275 47.8187 52.5853 47.6639C54.5235 46.4999 56.6583 45.6167 58.9195 45.0623C59.2134 44.9899 59.4796 44.8328 59.6849 44.6103C59.8902 44.3879 60.0256 44.11 60.0742 43.8112L61.5002 35.087ZM64.5 55.1522C57.6982 55.1522 52.1511 60.6988 52.1511 67.5C52.1511 74.3012 57.6982 79.8478 64.5 79.8478C71.3018 79.8478 76.8489 74.3012 76.8489 67.5C76.8489 60.6988 71.3018 55.1522 64.5 55.1522ZM64.5 58.2391C69.6334 58.2391 73.7617 62.3671 73.7617 67.5C73.7617 72.6329 69.6334 76.7609 64.5 76.7609C59.3666 76.7609 55.2383 72.6329 55.2383 67.5C55.2383 62.3671 59.3666 58.2391 64.5 58.2391Z" stroke="#A7A7A7" stroke-width="2" mask="url(#path-9-outside-1_63_344)"/>
<mask id="path-10-outside-2_63_344" maskUnits="userSpaceOnUse" x="26" y="29" width="73" height="73" fill="black">
<rect fill="white" x="26" y="29" width="73" height="73"/>
<path d="M58.1857 30C57.8198 30.0002 57.4659 30.1303 57.1871 30.3672C56.9082 30.6041 56.7226 30.9323 56.6632 31.2933L55.1618 40.4848C53.3564 41.0099 51.6349 41.7185 50.0124 42.6011L42.4271 37.1838C42.1301 36.9718 41.7676 36.8718 41.4039 36.9016C41.0401 36.9314 40.6988 37.089 40.4403 37.3466L34.4347 43.3457C34.178 43.6025 34.0201 43.9415 33.9887 44.3032C33.9572 44.6648 34.0543 45.026 34.2628 45.3232L39.5991 52.9562C38.7029 54.588 37.9785 56.3191 37.4405 58.1413L28.2873 59.6637C27.9274 59.7243 27.6006 59.9105 27.3649 60.1892C27.1292 60.4679 27 60.8211 27 61.1861V69.6752C26.9993 70.038 27.1265 70.3895 27.3592 70.6679C27.5918 70.9462 27.9151 71.1338 28.2723 71.1976L37.4314 72.8195C37.9666 74.6385 38.6863 76.3708 39.584 78.0046L34.1814 85.5622C33.9693 85.8592 33.8693 86.2216 33.8991 86.5853C33.9289 86.949 34.0866 87.2904 34.3442 87.5488L40.3468 93.5539C40.6031 93.8102 40.9413 93.9682 41.3024 94.0002C41.6634 94.0321 42.0242 93.9361 42.3215 93.7288L49.9702 88.3748C51.5975 89.2626 53.3232 89.9764 55.1347 90.5062L56.6632 99.7097C56.7232 100.07 56.9091 100.398 57.1879 100.634C57.4667 100.87 57.8203 101 58.1857 101H66.6756C67.0388 101.001 67.3907 100.873 67.6691 100.64C67.9476 100.406 68.1349 100.083 68.1981 99.7248L69.8352 90.4851C71.6391 89.9471 73.3568 89.2228 74.9755 88.3296L82.6755 93.7318C82.9727 93.9403 83.3339 94.0373 83.6956 94.0059C84.0573 93.9745 84.3964 93.8166 84.6532 93.56L90.6558 87.5518C90.9145 87.2926 91.0726 86.9499 91.1018 86.5849C91.1311 86.2198 91.0297 85.8563 90.8156 85.5592L85.3255 77.9383C86.2033 76.3274 86.9105 74.6202 87.4359 72.8285L96.7247 71.2006C97.0824 71.1375 97.4064 70.9502 97.6397 70.6717C97.8729 70.3933 98.0005 70.0415 98 69.6782V61.1891C97.9998 60.8233 97.8697 60.4694 97.6328 60.1905C97.3959 59.9117 97.0677 59.7261 96.7066 59.6667L87.4329 58.1504C86.904 56.3608 86.1948 54.6566 85.3165 53.0467L90.7312 45.3323C90.9397 45.0351 91.0367 44.6739 91.0053 44.3122C90.9739 43.9505 90.816 43.6115 90.5593 43.3547L84.5537 37.3526C84.2945 37.094 83.9517 36.9359 83.5867 36.9066C83.2216 36.8773 82.858 36.9788 82.5609 37.1929L74.9604 42.6583C73.3411 41.7687 71.6223 41.0482 69.8141 40.5149L68.1981 31.2782C68.1355 30.9199 67.9485 30.5953 67.67 30.3614C67.3914 30.1276 67.0393 29.9996 66.6756 30H58.1857ZM59.5002 33.087H65.3792L66.9168 41.8625C66.9679 42.1568 67.1034 42.43 67.3068 42.6488C67.5101 42.8677 67.7726 43.0228 68.0624 43.0954C70.32 43.658 72.4402 44.5497 74.3755 45.7212C74.6343 45.8779 74.9334 45.9552 75.2357 45.9434C75.538 45.9316 75.8302 45.8313 76.0759 45.6549L83.2995 40.4637L87.457 44.6208L82.3137 51.9493C82.1419 52.1938 82.0448 52.4829 82.034 52.7815C82.0233 53.0801 82.0995 53.3754 82.2534 53.6315C83.4134 55.5623 84.2932 57.669 84.8552 59.9139C84.9284 60.2063 85.0856 60.4709 85.3074 60.675C85.5292 60.8791 85.8059 61.0138 86.1034 61.0625L94.9128 62.5035V68.382L86.0853 69.9315C85.7907 69.9836 85.5176 70.1202 85.2992 70.3246C85.0809 70.5291 84.9266 70.7926 84.8552 71.083C84.2997 73.3252 83.4194 75.4318 82.2594 77.3625C82.1037 77.6212 82.0273 77.9198 82.0396 78.2215C82.0519 78.5231 82.1525 78.8146 82.3287 79.0597L87.5445 86.2978L83.387 90.4579L76.0699 85.324C75.8242 85.152 75.5336 85.0552 75.2338 85.0455C74.934 85.0359 74.6378 85.1138 74.3816 85.2698C72.4559 86.4413 70.3334 87.3372 68.0835 87.9076C67.7951 87.9803 67.5338 88.1347 67.3311 88.3524C67.1284 88.5701 66.9929 88.8417 66.9409 89.1345L65.3822 97.913H59.4942L58.041 89.1737C57.9916 88.8764 57.8562 88.6001 57.6515 88.3789C57.4468 88.1576 57.1819 88.0011 56.8893 87.9287C54.6305 87.3719 52.5006 86.4816 50.5521 85.312C50.2963 85.1588 50.0015 85.083 49.7035 85.0937C49.4055 85.1044 49.117 85.2011 48.8728 85.3723L41.613 90.4579L37.4525 86.2917L42.5838 79.12C42.7592 78.8743 42.8587 78.5825 42.8699 78.2809C42.8812 77.9792 42.8037 77.6809 42.6471 77.4228C41.4647 75.4691 40.5704 73.3397 40.0061 71.071C39.9339 70.782 39.7796 70.5201 39.5619 70.3169C39.3442 70.1136 39.0723 69.9777 38.7791 69.9254L30.0872 68.382V62.4944L38.773 61.0504C39.07 61.0012 39.346 60.8663 39.5672 60.6622C39.7885 60.4581 39.9452 60.1939 40.0182 59.9019C40.5873 57.6254 41.4812 55.4963 42.6592 53.5471C42.8145 53.2912 42.8921 52.9956 42.8825 52.6964C42.8728 52.3972 42.7764 52.1073 42.6049 51.8619L37.5339 44.6148L41.6975 40.4547L48.8939 45.5976C49.1388 45.7721 49.4292 45.8714 49.7297 45.8832C50.0302 45.895 50.3275 45.8187 50.5853 45.6639C52.5235 44.4999 54.6583 43.6167 56.9195 43.0623C57.2134 42.9899 57.4796 42.8328 57.6849 42.6103C57.8902 42.3879 58.0256 42.11 58.0742 41.8112L59.5002 33.087ZM62.5 53.1522C55.6982 53.1522 50.1511 58.6988 50.1511 65.5C50.1511 72.3012 55.6982 77.8478 62.5 77.8478C69.3018 77.8478 74.8489 72.3012 74.8489 65.5C74.8489 58.6988 69.3018 53.1522 62.5 53.1522ZM62.5 56.2391C67.6334 56.2391 71.7617 60.3671 71.7617 65.5C71.7617 70.6329 67.6334 74.7609 62.5 74.7609C57.3666 74.7609 53.2383 70.6329 53.2383 65.5C53.2383 60.3671 57.3666 56.2391 62.5 56.2391Z"/>
</mask>
<path d="M58.1857 30C57.8198 30.0002 57.4659 30.1303 57.1871 30.3672C56.9082 30.6041 56.7226 30.9323 56.6632 31.2933L55.1618 40.4848C53.3564 41.0099 51.6349 41.7185 50.0124 42.6011L42.4271 37.1838C42.1301 36.9718 41.7676 36.8718 41.4039 36.9016C41.0401 36.9314 40.6988 37.089 40.4403 37.3466L34.4347 43.3457C34.178 43.6025 34.0201 43.9415 33.9887 44.3032C33.9572 44.6648 34.0543 45.026 34.2628 45.3232L39.5991 52.9562C38.7029 54.588 37.9785 56.3191 37.4405 58.1413L28.2873 59.6637C27.9274 59.7243 27.6006 59.9105 27.3649 60.1892C27.1292 60.4679 27 60.8211 27 61.1861V69.6752C26.9993 70.038 27.1265 70.3895 27.3592 70.6679C27.5918 70.9462 27.9151 71.1338 28.2723 71.1976L37.4314 72.8195C37.9666 74.6385 38.6863 76.3708 39.584 78.0046L34.1814 85.5622C33.9693 85.8592 33.8693 86.2216 33.8991 86.5853C33.9289 86.949 34.0866 87.2904 34.3442 87.5488L40.3468 93.5539C40.6031 93.8102 40.9413 93.9682 41.3024 94.0002C41.6634 94.0321 42.0242 93.9361 42.3215 93.7288L49.9702 88.3748C51.5975 89.2626 53.3232 89.9764 55.1347 90.5062L56.6632 99.7097C56.7232 100.07 56.9091 100.398 57.1879 100.634C57.4667 100.87 57.8203 101 58.1857 101H66.6756C67.0388 101.001 67.3907 100.873 67.6691 100.64C67.9476 100.406 68.1349 100.083 68.1981 99.7248L69.8352 90.4851C71.6391 89.9471 73.3568 89.2228 74.9755 88.3296L82.6755 93.7318C82.9727 93.9403 83.3339 94.0373 83.6956 94.0059C84.0573 93.9745 84.3964 93.8166 84.6532 93.56L90.6558 87.5518C90.9145 87.2926 91.0726 86.9499 91.1018 86.5849C91.1311 86.2198 91.0297 85.8563 90.8156 85.5592L85.3255 77.9383C86.2033 76.3274 86.9105 74.6202 87.4359 72.8285L96.7247 71.2006C97.0824 71.1375 97.4064 70.9502 97.6397 70.6717C97.8729 70.3933 98.0005 70.0415 98 69.6782V61.1891C97.9998 60.8233 97.8697 60.4694 97.6328 60.1905C97.3959 59.9117 97.0677 59.7261 96.7066 59.6667L87.4329 58.1504C86.904 56.3608 86.1948 54.6566 85.3165 53.0467L90.7312 45.3323C90.9397 45.0351 91.0367 44.6739 91.0053 44.3122C90.9739 43.9505 90.816 43.6115 90.5593 43.3547L84.5537 37.3526C84.2945 37.094 83.9517 36.9359 83.5867 36.9066C83.2216 36.8773 82.858 36.9788 82.5609 37.1929L74.9604 42.6583C73.3411 41.7687 71.6223 41.0482 69.8141 40.5149L68.1981 31.2782C68.1355 30.9199 67.9485 30.5953 67.67 30.3614C67.3914 30.1276 67.0393 29.9996 66.6756 30H58.1857ZM59.5002 33.087H65.3792L66.9168 41.8625C66.9679 42.1568 67.1034 42.43 67.3068 42.6488C67.5101 42.8677 67.7726 43.0228 68.0624 43.0954C70.32 43.658 72.4402 44.5497 74.3755 45.7212C74.6343 45.8779 74.9334 45.9552 75.2357 45.9434C75.538 45.9316 75.8302 45.8313 76.0759 45.6549L83.2995 40.4637L87.457 44.6208L82.3137 51.9493C82.1419 52.1938 82.0448 52.4829 82.034 52.7815C82.0233 53.0801 82.0995 53.3754 82.2534 53.6315C83.4134 55.5623 84.2932 57.669 84.8552 59.9139C84.9284 60.2063 85.0856 60.4709 85.3074 60.675C85.5292 60.8791 85.8059 61.0138 86.1034 61.0625L94.9128 62.5035V68.382L86.0853 69.9315C85.7907 69.9836 85.5176 70.1202 85.2992 70.3246C85.0809 70.5291 84.9266 70.7926 84.8552 71.083C84.2997 73.3252 83.4194 75.4318 82.2594 77.3625C82.1037 77.6212 82.0273 77.9198 82.0396 78.2215C82.0519 78.5231 82.1525 78.8146 82.3287 79.0597L87.5445 86.2978L83.387 90.4579L76.0699 85.324C75.8242 85.152 75.5336 85.0552 75.2338 85.0455C74.934 85.0359 74.6378 85.1138 74.3816 85.2698C72.4559 86.4413 70.3334 87.3372 68.0835 87.9076C67.7951 87.9803 67.5338 88.1347 67.3311 88.3524C67.1284 88.5701 66.9929 88.8417 66.9409 89.1345L65.3822 97.913H59.4942L58.041 89.1737C57.9916 88.8764 57.8562 88.6001 57.6515 88.3789C57.4468 88.1576 57.1819 88.0011 56.8893 87.9287C54.6305 87.3719 52.5006 86.4816 50.5521 85.312C50.2963 85.1588 50.0015 85.083 49.7035 85.0937C49.4055 85.1044 49.117 85.2011 48.8728 85.3723L41.613 90.4579L37.4525 86.2917L42.5838 79.12C42.7592 78.8743 42.8587 78.5825 42.8699 78.2809C42.8812 77.9792 42.8037 77.6809 42.6471 77.4228C41.4647 75.4691 40.5704 73.3397 40.0061 71.071C39.9339 70.782 39.7796 70.5201 39.5619 70.3169C39.3442 70.1136 39.0723 69.9777 38.7791 69.9254L30.0872 68.382V62.4944L38.773 61.0504C39.07 61.0012 39.346 60.8663 39.5672 60.6622C39.7885 60.4581 39.9452 60.1939 40.0182 59.9019C40.5873 57.6254 41.4812 55.4963 42.6592 53.5471C42.8145 53.2912 42.8921 52.9956 42.8825 52.6964C42.8728 52.3972 42.7764 52.1073 42.6049 51.8619L37.5339 44.6148L41.6975 40.4547L48.8939 45.5976C49.1388 45.7721 49.4292 45.8714 49.7297 45.8832C50.0302 45.895 50.3275 45.8187 50.5853 45.6639C52.5235 44.4999 54.6583 43.6167 56.9195 43.0623C57.2134 42.9899 57.4796 42.8328 57.6849 42.6103C57.8902 42.3879 58.0256 42.11 58.0742 41.8112L59.5002 33.087ZM62.5 53.1522C55.6982 53.1522 50.1511 58.6988 50.1511 65.5C50.1511 72.3012 55.6982 77.8478 62.5 77.8478C69.3018 77.8478 74.8489 72.3012 74.8489 65.5C74.8489 58.6988 69.3018 53.1522 62.5 53.1522ZM62.5 56.2391C67.6334 56.2391 71.7617 60.3671 71.7617 65.5C71.7617 70.6329 67.6334 74.7609 62.5 74.7609C57.3666 74.7609 53.2383 70.6329 53.2383 65.5C53.2383 60.3671 57.3666 56.2391 62.5 56.2391Z" fill="white"/>
<path d="M58.1857 30C57.8198 30.0002 57.4659 30.1303 57.1871 30.3672C56.9082 30.6041 56.7226 30.9323 56.6632 31.2933L55.1618 40.4848C53.3564 41.0099 51.6349 41.7185 50.0124 42.6011L42.4271 37.1838C42.1301 36.9718 41.7676 36.8718 41.4039 36.9016C41.0401 36.9314 40.6988 37.089 40.4403 37.3466L34.4347 43.3457C34.178 43.6025 34.0201 43.9415 33.9887 44.3032C33.9572 44.6648 34.0543 45.026 34.2628 45.3232L39.5991 52.9562C38.7029 54.588 37.9785 56.3191 37.4405 58.1413L28.2873 59.6637C27.9274 59.7243 27.6006 59.9105 27.3649 60.1892C27.1292 60.4679 27 60.8211 27 61.1861V69.6752C26.9993 70.038 27.1265 70.3895 27.3592 70.6679C27.5918 70.9462 27.9151 71.1338 28.2723 71.1976L37.4314 72.8195C37.9666 74.6385 38.6863 76.3708 39.584 78.0046L34.1814 85.5622C33.9693 85.8592 33.8693 86.2216 33.8991 86.5853C33.9289 86.949 34.0866 87.2904 34.3442 87.5488L40.3468 93.5539C40.6031 93.8102 40.9413 93.9682 41.3024 94.0002C41.6634 94.0321 42.0242 93.9361 42.3215 93.7288L49.9702 88.3748C51.5975 89.2626 53.3232 89.9764 55.1347 90.5062L56.6632 99.7097C56.7232 100.07 56.9091 100.398 57.1879 100.634C57.4667 100.87 57.8203 101 58.1857 101H66.6756C67.0388 101.001 67.3907 100.873 67.6691 100.64C67.9476 100.406 68.1349 100.083 68.1981 99.7248L69.8352 90.4851C71.6391 89.9471 73.3568 89.2228 74.9755 88.3296L82.6755 93.7318C82.9727 93.9403 83.3339 94.0373 83.6956 94.0059C84.0573 93.9745 84.3964 93.8166 84.6532 93.56L90.6558 87.5518C90.9145 87.2926 91.0726 86.9499 91.1018 86.5849C91.1311 86.2198 91.0297 85.8563 90.8156 85.5592L85.3255 77.9383C86.2033 76.3274 86.9105 74.6202 87.4359 72.8285L96.7247 71.2006C97.0824 71.1375 97.4064 70.9502 97.6397 70.6717C97.8729 70.3933 98.0005 70.0415 98 69.6782V61.1891C97.9998 60.8233 97.8697 60.4694 97.6328 60.1905C97.3959 59.9117 97.0677 59.7261 96.7066 59.6667L87.4329 58.1504C86.904 56.3608 86.1948 54.6566 85.3165 53.0467L90.7312 45.3323C90.9397 45.0351 91.0367 44.6739 91.0053 44.3122C90.9739 43.9505 90.816 43.6115 90.5593 43.3547L84.5537 37.3526C84.2945 37.094 83.9517 36.9359 83.5867 36.9066C83.2216 36.8773 82.858 36.9788 82.5609 37.1929L74.9604 42.6583C73.3411 41.7687 71.6223 41.0482 69.8141 40.5149L68.1981 31.2782C68.1355 30.9199 67.9485 30.5953 67.67 30.3614C67.3914 30.1276 67.0393 29.9996 66.6756 30H58.1857ZM59.5002 33.087H65.3792L66.9168 41.8625C66.9679 42.1568 67.1034 42.43 67.3068 42.6488C67.5101 42.8677 67.7726 43.0228 68.0624 43.0954C70.32 43.658 72.4402 44.5497 74.3755 45.7212C74.6343 45.8779 74.9334 45.9552 75.2357 45.9434C75.538 45.9316 75.8302 45.8313 76.0759 45.6549L83.2995 40.4637L87.457 44.6208L82.3137 51.9493C82.1419 52.1938 82.0448 52.4829 82.034 52.7815C82.0233 53.0801 82.0995 53.3754 82.2534 53.6315C83.4134 55.5623 84.2932 57.669 84.8552 59.9139C84.9284 60.2063 85.0856 60.4709 85.3074 60.675C85.5292 60.8791 85.8059 61.0138 86.1034 61.0625L94.9128 62.5035V68.382L86.0853 69.9315C85.7907 69.9836 85.5176 70.1202 85.2992 70.3246C85.0809 70.5291 84.9266 70.7926 84.8552 71.083C84.2997 73.3252 83.4194 75.4318 82.2594 77.3625C82.1037 77.6212 82.0273 77.9198 82.0396 78.2215C82.0519 78.5231 82.1525 78.8146 82.3287 79.0597L87.5445 86.2978L83.387 90.4579L76.0699 85.324C75.8242 85.152 75.5336 85.0552 75.2338 85.0455C74.934 85.0359 74.6378 85.1138 74.3816 85.2698C72.4559 86.4413 70.3334 87.3372 68.0835 87.9076C67.7951 87.9803 67.5338 88.1347 67.3311 88.3524C67.1284 88.5701 66.9929 88.8417 66.9409 89.1345L65.3822 97.913H59.4942L58.041 89.1737C57.9916 88.8764 57.8562 88.6001 57.6515 88.3789C57.4468 88.1576 57.1819 88.0011 56.8893 87.9287C54.6305 87.3719 52.5006 86.4816 50.5521 85.312C50.2963 85.1588 50.0015 85.083 49.7035 85.0937C49.4055 85.1044 49.117 85.2011 48.8728 85.3723L41.613 90.4579L37.4525 86.2917L42.5838 79.12C42.7592 78.8743 42.8587 78.5825 42.8699 78.2809C42.8812 77.9792 42.8037 77.6809 42.6471 77.4228C41.4647 75.4691 40.5704 73.3397 40.0061 71.071C39.9339 70.782 39.7796 70.5201 39.5619 70.3169C39.3442 70.1136 39.0723 69.9777 38.7791 69.9254L30.0872 68.382V62.4944L38.773 61.0504C39.07 61.0012 39.346 60.8663 39.5672 60.6622C39.7885 60.4581 39.9452 60.1939 40.0182 59.9019C40.5873 57.6254 41.4812 55.4963 42.6592 53.5471C42.8145 53.2912 42.8921 52.9956 42.8825 52.6964C42.8728 52.3972 42.7764 52.1073 42.6049 51.8619L37.5339 44.6148L41.6975 40.4547L48.8939 45.5976C49.1388 45.7721 49.4292 45.8714 49.7297 45.8832C50.0302 45.895 50.3275 45.8187 50.5853 45.6639C52.5235 44.4999 54.6583 43.6167 56.9195 43.0623C57.2134 42.9899 57.4796 42.8328 57.6849 42.6103C57.8902 42.3879 58.0256 42.11 58.0742 41.8112L59.5002 33.087ZM62.5 53.1522C55.6982 53.1522 50.1511 58.6988 50.1511 65.5C50.1511 72.3012 55.6982 77.8478 62.5 77.8478C69.3018 77.8478 74.8489 72.3012 74.8489 65.5C74.8489 58.6988 69.3018 53.1522 62.5 53.1522ZM62.5 56.2391C67.6334 56.2391 71.7617 60.3671 71.7617 65.5C71.7617 70.6329 67.6334 74.7609 62.5 74.7609C57.3666 74.7609 53.2383 70.6329 53.2383 65.5C53.2383 60.3671 57.3666 56.2391 62.5 56.2391Z" stroke="white" stroke-width="2" mask="url(#path-10-outside-2_63_344)"/>
</svg>
