<svg width="126" height="131" viewBox="0 0 126 131" fill="none" xmlns="http://www.w3.org/2000/svg">
<path fill-rule="evenodd" clip-rule="evenodd" d="M63 0C75.4597 0 87.6388 3.84068 97.9994 11.0397C108.36 18.2358 116.435 28.4657 121.203 40.4343C125.971 52.4029 127.22 65.5744 124.789 78.2784C122.357 90.9854 116.358 102.656 107.547 111.814C98.7353 120.975 87.5099 127.216 75.2907 129.741C63.0687 132.268 50.4029 130.973 38.8911 126.016C27.3792 121.056 17.5398 112.663 10.6155 101.891C3.69409 91.1194 0 78.4541 0 65.5C0 48.1306 6.63505 31.4697 18.4504 19.1855C30.2658 6.90131 46.2907 0 63 0Z" fill="#7B6CEB"/>
<path fill-rule="evenodd" clip-rule="evenodd" d="M16.3943 65.5C16.3943 59.1375 17.5999 52.8376 19.9424 46.9575C22.2848 41.0804 25.7183 35.7392 30.0453 31.2375C34.3722 26.7389 39.5096 23.1691 45.1653 20.7337C50.8181 18.3013 56.8776 17.0479 63 17.0479C69.1196 17.0479 75.1791 18.3013 80.8348 20.7337C86.4876 23.1691 91.6249 26.7389 95.9548 31.2375C100.282 35.7392 103.715 41.0804 106.055 46.9575C108.397 52.8376 109.603 59.1375 109.603 65.5C110.219 63.7523 111.332 62.2428 112.799 61.177C114.265 60.1111 116.012 59.5395 117.801 59.5395C119.591 59.5395 121.338 60.1111 122.804 61.177C124.27 62.2428 125.384 63.7523 126 65.5C126 48.1306 119.362 31.4697 107.547 19.1855C95.7314 6.90131 79.7065 0 63 0C46.2907 0 30.2658 6.90131 18.4504 19.1855C6.63505 31.4697 0 48.1306 0 65.5C0.612818 63.7523 1.72677 62.2428 3.19582 61.177C4.662 60.1111 6.40596 59.5395 8.19573 59.5395C9.9855 59.5395 11.7323 60.1111 13.1985 61.177C14.6647 62.2428 15.7815 63.7523 16.3943 65.5Z" fill="#6A5AE0"/>
<g style="mix-blend-mode:screen">
<path fill-rule="evenodd" clip-rule="evenodd" d="M61.8042 15.7747C71.0274 15.7744 80.0436 18.618 87.7121 23.9455C95.381 29.2727 101.358 36.8448 104.888 45.704C108.417 54.5631 109.341 64.3116 107.541 73.7165C105.742 83.1214 101.301 91.7603 94.779 98.541C88.2571 105.321 79.948 109.939 70.902 111.81C61.8561 113.681 52.4797 112.721 43.9586 109.051C35.4376 105.381 28.1545 99.1668 23.0306 91.1937C17.9064 83.2208 15.1713 73.8469 15.1716 64.2577C15.1716 51.3992 20.0848 39.0673 28.83 29.975C37.5753 20.8828 49.4365 15.7747 61.8042 15.7747Z" fill="#6A5AE0"/>
</g>
<path fill-rule="evenodd" clip-rule="evenodd" d="M63 17.0479C72.218 17.0479 81.227 19.8882 88.8901 25.2115C96.5561 30.5379 102.53 38.1031 106.058 46.9575C109.583 55.8119 110.508 65.5535 108.709 74.9528C106.911 84.352 102.472 92.9861 95.9547 99.7624C89.4371 106.539 81.1325 111.153 72.092 113.023C63.0515 114.893 53.6817 113.934 45.1652 110.266C36.6488 106.598 29.3694 100.388 24.2492 92.4204C19.1291 84.4533 16.3943 75.0838 16.3943 65.4999C16.3943 52.65 21.3054 40.3242 30.0452 31.2375C38.7851 22.1509 50.6377 17.0479 63 17.0479Z" fill="#6A5AE0"/>
<g style="mix-blend-mode:screen">
<path fill-rule="evenodd" clip-rule="evenodd" d="M24.6673 93.0665L89.5144 25.6462C83.9876 21.6805 77.7048 19.0009 71.0926 17.7862C64.4805 16.5715 57.6937 16.8543 51.1961 18.6139L17.9006 53.2306C16.211 59.986 15.939 67.0422 17.1073 73.9167C18.2728 80.7912 20.853 87.3233 24.6673 93.0665Z" fill="#6A5AE0"/>
</g>
<g style="mix-blend-mode:screen">
<path fill-rule="evenodd" clip-rule="evenodd" d="M105.728 47.9311L46.1016 109.924L45.5862 110.46C50.5603 112.541 55.8437 113.714 61.2016 113.919L62.3385 112.74L108.434 64.8122L109.568 63.6332C109.371 58.0627 108.245 52.5697 106.241 47.3981L105.728 47.9311Z" fill="#6A5AE0"/>
</g>
<path fill-rule="evenodd" clip-rule="evenodd" d="M63 1.70598C75.1361 1.70598 86.9973 5.44543 97.0888 12.4569C107.18 19.4654 115.044 29.4303 119.689 41.0863C124.333 52.7453 125.548 65.5714 123.179 77.9479C120.814 90.3215 114.969 101.689 106.387 110.612C97.8047 119.531 86.8713 125.608 74.97 128.07C63.0659 130.532 50.7293 129.267 39.5182 124.441C28.3042 119.612 18.7225 111.433 11.9786 100.944C5.23759 90.4525 1.638 78.1176 1.638 65.5C1.638 57.1219 3.22446 48.8272 6.30859 41.0863C9.39273 33.3484 13.9115 26.3131 19.6102 20.3913C25.3088 14.4666 32.0727 9.76842 39.5182 6.5619C46.9608 3.35538 54.9417 1.70598 63 1.70598ZM63 0C75.4597 0 87.6388 3.84068 97.9994 11.0397C108.36 18.2358 116.435 28.4657 121.203 40.4343C125.971 52.4029 127.22 65.5744 124.789 78.2784C122.357 90.9854 116.358 102.656 107.547 111.814C98.7353 120.975 87.5099 127.216 75.2907 129.741C63.0687 132.268 50.4029 130.973 38.8911 126.016C27.3792 121.056 17.5398 112.663 10.6155 101.891C3.69409 91.1194 0 78.4541 0 65.5C0 48.1306 6.63505 31.4697 18.4504 19.1855C30.2658 6.90131 46.2907 0 63 0Z" fill="#6A5AE0"/>
<g style="mix-blend-mode:screen">
<path fill-rule="evenodd" clip-rule="evenodd" d="M3.12988 51.4546C6.7805 37.8648 14.6083 25.8905 25.4185 17.3601C36.2287 8.82988 49.4272 4.21201 62.9986 4.21201C76.5699 4.21201 89.7681 8.82988 100.578 17.3601C111.389 25.8905 119.217 37.8648 122.867 51.4546C119.798 37.3301 112.199 24.7112 101.319 15.6702C90.44 6.62938 76.9264 1.70447 62.9986 1.70447C49.0707 1.70447 35.5572 6.62938 24.6774 15.6702C13.7979 24.7112 6.19919 37.3301 3.12988 51.4546Z" fill="#6A5AE0"/>
</g>
<path d="M46 37C46 36.2818 46.385 35.6186 47.0088 35.2627C47.6327 34.9068 48.4003 34.9126 49.0186 35.2783L99.0186 64.8545C99.61 65.2045 99.9801 65.8335 99.999 66.5205C100.017 67.1648 99.7236 67.7755 99.2158 68.1641L99.1113 68.2383L49.1113 101.663C48.4978 102.073 47.7084 102.111 47.0576 101.764C46.4067 101.416 46 100.738 46 100L46 37Z" fill="#A7A7A7" stroke="#A7A7A7" stroke-width="4" stroke-linejoin="round"/>
<path d="M44 35C44 34.2818 44.385 33.6186 45.0088 33.2627C45.6327 32.9068 46.4003 32.9126 47.0186 33.2783L97.0186 62.8545C97.61 63.2045 97.9801 63.8335 97.999 64.5205C98.0168 65.1648 97.7236 65.7755 97.2158 66.1641L97.1113 66.2383L47.1113 99.6631C46.4978 100.073 45.7084 100.111 45.0576 99.7637C44.4067 99.4158 44 98.738 44 98L44 35Z" fill="white" stroke="white" stroke-width="4" stroke-linejoin="round"/>
<path d="M53 50L53.0049 49.8672C53.0488 49.2053 53.4191 48.6048 53.998 48.2695C54.6155 47.912 55.3763 47.9105 55.9951 48.2656L82.9951 63.7568C83.5997 64.1037 83.98 64.7407 83.999 65.4375C84.0168 66.0906 83.7149 66.7085 83.1953 67.0957L83.0879 67.1699L56.0879 84.6777C55.4729 85.0765 54.689 85.1068 54.0449 84.7568C53.401 84.4068 53 83.7329 53 83L53 50Z" fill="white" stroke="#A7A7A7" stroke-width="4" stroke-linejoin="round"/>
</svg>
