<svg width="126" height="131" viewBox="0 0 126 131" fill="none" xmlns="http://www.w3.org/2000/svg">
<path fill-rule="evenodd" clip-rule="evenodd" d="M63 0C75.4597 0 87.6388 3.84068 97.9994 11.0397C108.36 18.2358 116.435 28.4657 121.203 40.4343C125.971 52.4029 127.22 65.5744 124.789 78.2784C122.357 90.9854 116.358 102.656 107.547 111.814C98.7353 120.975 87.5099 127.216 75.2907 129.741C63.0687 132.268 50.4029 130.973 38.8911 126.016C27.3792 121.056 17.5398 112.663 10.6155 101.891C3.69409 91.1194 0 78.4541 0 65.5C0 48.1306 6.63505 31.4697 18.4504 19.1855C30.2658 6.90131 46.2907 0 63 0Z" fill="#7B6CEB"/>
<path fill-rule="evenodd" clip-rule="evenodd" d="M16.3943 65.5C16.3943 59.1375 17.5999 52.8376 19.9424 46.9575C22.2848 41.0804 25.7183 35.7392 30.0453 31.2375C34.3722 26.7389 39.5096 23.1691 45.1653 20.7337C50.8181 18.3013 56.8776 17.0479 63 17.0479C69.1196 17.0479 75.1791 18.3013 80.8348 20.7337C86.4876 23.1691 91.6249 26.7389 95.9548 31.2375C100.282 35.7392 103.715 41.0804 106.055 46.9575C108.397 52.8376 109.603 59.1375 109.603 65.5C110.219 63.7523 111.332 62.2428 112.799 61.177C114.265 60.1111 116.012 59.5395 117.801 59.5395C119.591 59.5395 121.338 60.1111 122.804 61.177C124.27 62.2428 125.384 63.7523 126 65.5C126 48.1306 119.362 31.4697 107.547 19.1855C95.7314 6.90131 79.7065 0 63 0C46.2907 0 30.2658 6.90131 18.4504 19.1855C6.63505 31.4697 0 48.1306 0 65.5C0.612818 63.7523 1.72677 62.2428 3.19582 61.177C4.662 60.1111 6.40596 59.5395 8.19573 59.5395C9.9855 59.5395 11.7323 60.1111 13.1985 61.177C14.6647 62.2428 15.7815 63.7523 16.3943 65.5Z" fill="#6A5AE0"/>
<g style="mix-blend-mode:screen">
<path fill-rule="evenodd" clip-rule="evenodd" d="M61.8042 15.7747C71.0274 15.7744 80.0436 18.618 87.7121 23.9455C95.381 29.2727 101.358 36.8448 104.888 45.704C108.417 54.5631 109.341 64.3116 107.541 73.7165C105.742 83.1214 101.301 91.7603 94.779 98.541C88.2571 105.321 79.948 109.939 70.902 111.81C61.8561 113.681 52.4797 112.721 43.9586 109.051C35.4376 105.381 28.1545 99.1668 23.0306 91.1937C17.9064 83.2208 15.1713 73.8469 15.1716 64.2577C15.1716 51.3992 20.0848 39.0673 28.83 29.975C37.5753 20.8828 49.4365 15.7747 61.8042 15.7747Z" fill="#6A5AE0"/>
</g>
<path fill-rule="evenodd" clip-rule="evenodd" d="M63 17.0479C72.218 17.0479 81.227 19.8882 88.8901 25.2115C96.5561 30.5379 102.53 38.1031 106.058 46.9575C109.583 55.8119 110.508 65.5535 108.709 74.9528C106.911 84.352 102.472 92.9861 95.9547 99.7624C89.4371 106.539 81.1325 111.153 72.092 113.023C63.0515 114.893 53.6817 113.934 45.1652 110.266C36.6488 106.598 29.3694 100.388 24.2492 92.4204C19.1291 84.4533 16.3943 75.0838 16.3943 65.4999C16.3943 52.65 21.3054 40.3242 30.0452 31.2375C38.7851 22.1509 50.6377 17.0479 63 17.0479Z" fill="#6A5AE0"/>
<g style="mix-blend-mode:screen">
<path fill-rule="evenodd" clip-rule="evenodd" d="M24.6673 93.0665L89.5144 25.6462C83.9876 21.6805 77.7048 19.0009 71.0926 17.7862C64.4805 16.5715 57.6937 16.8543 51.1961 18.6139L17.9006 53.2306C16.211 59.986 15.939 67.0422 17.1073 73.9167C18.2728 80.7912 20.853 87.3233 24.6673 93.0665Z" fill="#6A5AE0"/>
</g>
<g style="mix-blend-mode:screen">
<path fill-rule="evenodd" clip-rule="evenodd" d="M105.728 47.9311L46.1016 109.924L45.5862 110.46C50.5603 112.541 55.8437 113.714 61.2016 113.919L62.3385 112.74L108.434 64.8122L109.568 63.6332C109.371 58.0627 108.245 52.5697 106.241 47.3981L105.728 47.9311Z" fill="#6A5AE0"/>
</g>
<path fill-rule="evenodd" clip-rule="evenodd" d="M63 1.70598C75.1361 1.70598 86.9973 5.44543 97.0888 12.4569C107.18 19.4654 115.044 29.4303 119.689 41.0863C124.333 52.7453 125.548 65.5714 123.179 77.9479C120.814 90.3215 114.969 101.689 106.387 110.612C97.8047 119.531 86.8713 125.608 74.97 128.07C63.0659 130.532 50.7293 129.267 39.5182 124.441C28.3042 119.612 18.7225 111.433 11.9786 100.944C5.23759 90.4525 1.638 78.1176 1.638 65.5C1.638 57.1219 3.22446 48.8272 6.30859 41.0863C9.39273 33.3484 13.9115 26.3131 19.6102 20.3913C25.3088 14.4666 32.0727 9.76842 39.5182 6.5619C46.9608 3.35538 54.9417 1.70598 63 1.70598ZM63 0C75.4597 0 87.6388 3.84068 97.9994 11.0397C108.36 18.2358 116.435 28.4657 121.203 40.4343C125.971 52.4029 127.22 65.5744 124.789 78.2784C122.357 90.9854 116.358 102.656 107.547 111.814C98.7353 120.975 87.5099 127.216 75.2907 129.741C63.0687 132.268 50.4029 130.973 38.8911 126.016C27.3792 121.056 17.5398 112.663 10.6155 101.891C3.69409 91.1194 0 78.4541 0 65.5C0 48.1306 6.63505 31.4697 18.4504 19.1855C30.2658 6.90131 46.2907 0 63 0Z" fill="#6A5AE0"/>
<g style="mix-blend-mode:screen">
<path fill-rule="evenodd" clip-rule="evenodd" d="M3.12988 51.4546C6.7805 37.8648 14.6083 25.8905 25.4185 17.3601C36.2287 8.82988 49.4272 4.21201 62.9986 4.21201C76.5699 4.21201 89.7681 8.82988 100.578 17.3601C111.389 25.8905 119.217 37.8648 122.867 51.4546C119.798 37.3301 112.199 24.7112 101.319 15.6702C90.44 6.62938 76.9264 1.70447 62.9986 1.70447C49.0707 1.70447 35.5572 6.62938 24.6774 15.6702C13.7979 24.7112 6.19919 37.3301 3.12988 51.4546Z" fill="#6A5AE0"/>
</g>
<path d="M53.7998 36.5C54.6808 36.5 55.5222 36.8625 56.1396 37.502C56.7565 38.1408 57.0996 39.0042 57.0996 39.9004V52.9502C57.0996 53.4405 56.9199 53.9397 56.5488 54.3213L56.5498 54.3223C55.8072 55.0914 54.5932 55.0914 53.8506 54.3223L49.6045 49.9248C45.6022 54.0239 43.0996 59.6847 43.0996 66C43.0996 78.5895 52.8867 88.7002 65 88.7002C77.1133 88.7002 86.9004 78.5895 86.9004 66C86.9004 54.2723 78.377 44.7037 67.4375 43.4492V43.4502C66.5908 43.3536 65.8162 42.9235 65.2725 42.2559C64.7291 41.5887 64.4559 40.7337 64.5059 39.8682C64.5558 39.0026 64.9255 38.1865 65.543 37.5898C66.1609 36.9929 66.98 36.6615 67.832 36.6699L67.9971 36.6758C68.0522 36.6791 68.1072 36.6842 68.1621 36.6904H68.1631L68.8291 36.7744C82.7619 38.7166 93.5 51.0993 93.5 66C93.5 82.2423 80.7243 95.5 65 95.5C49.2757 95.5 36.5 82.2423 36.5 66C36.5 57.8307 39.7586 50.4593 44.9639 45.1191L39.8506 39.8223C39.1176 39.063 39.1175 37.8364 39.8506 37.0771L39.8525 37.0752L39.9961 36.9424C40.3425 36.6517 40.7686 36.5 41.2002 36.5H53.7998Z" fill="#A7A7A7" stroke="#A7A7A7"/>
<path d="M51.7998 34.5C52.6808 34.5 53.5222 34.8625 54.1396 35.502C54.7565 36.1408 55.0996 37.0042 55.0996 37.9004V50.9502C55.0996 51.4405 54.9199 51.9397 54.5488 52.3213L54.5498 52.3223C53.8072 53.0914 52.5932 53.0914 51.8506 52.3223L47.6045 47.9248C43.6022 52.0239 41.0996 57.6847 41.0996 64C41.0996 76.5895 50.8867 86.7002 63 86.7002C75.1133 86.7002 84.9004 76.5895 84.9004 64C84.9004 52.2723 76.377 42.7037 65.4375 41.4492V41.4502C64.5908 41.3536 63.8162 40.9235 63.2725 40.2559C62.7291 39.5887 62.4559 38.7337 62.5059 37.8682C62.5558 37.0026 62.9255 36.1865 63.543 35.5898C64.1609 34.9929 64.98 34.6615 65.832 34.6699L65.9971 34.6758C66.0522 34.6791 66.1072 34.6842 66.1621 34.6904H66.1631L66.8291 34.7744C80.7619 36.7166 91.5 49.0993 91.5 64C91.5 80.2423 78.7243 93.5 63 93.5C47.2757 93.5 34.5 80.2423 34.5 64C34.5 55.8307 37.7586 48.4593 42.9639 43.1191L37.8506 37.8223C37.1176 37.063 37.1175 35.8364 37.8506 35.0771L37.8525 35.0752L37.9961 34.9424C38.3425 34.6517 38.7686 34.5 39.2002 34.5H51.7998Z" fill="white" stroke="white"/>
</svg>
