<svg width="28" height="24" viewBox="0 0 28 24" fill="none" xmlns="http://www.w3.org/2000/svg">
<path d="M15.75 4.06001C15.75 2.72401 13.8647 2.05501 12.7633 3.00001L7.51334 7.50001H5.25934C3.92817 7.50001 2.555 8.16401 2.156 9.40501C1.88586 10.2506 1.74931 11.1233 1.75 12C1.75 12.898 1.89117 13.768 2.15834 14.595C2.55617 15.835 3.92934 16.5 5.2605 16.5H7.51217L12.7622 21C13.8647 21.945 15.75 21.276 15.75 19.94V4.06001ZM20.7433 9.22001C20.6632 9.14633 20.5666 9.08722 20.4593 9.04623C20.352 9.00524 20.2361 8.9832 20.1186 8.98142C20.0011 8.97964 19.8844 8.99817 19.7755 9.03589C19.6665 9.07361 19.5675 9.12976 19.4845 9.20098C19.4014 9.27219 19.3359 9.35703 19.2919 9.45042C19.2479 9.5438 19.2262 9.64383 19.2283 9.74454C19.2304 9.84524 19.2561 9.94455 19.3039 10.0366C19.3517 10.1286 19.4207 10.2114 19.5067 10.28L21.5133 12L19.5067 13.72C19.4207 13.7887 19.3517 13.8715 19.3039 13.9635C19.2561 14.0555 19.2304 14.1548 19.2283 14.2555C19.2262 14.3562 19.2479 14.4562 19.2919 14.5496C19.3359 14.643 19.4014 14.7278 19.4845 14.7991C19.5675 14.8703 19.6665 14.9264 19.7755 14.9641C19.8844 15.0019 20.0011 15.0204 20.1186 15.0186C20.2361 15.0168 20.352 14.9948 20.4593 14.9538C20.5666 14.9128 20.6632 14.8537 20.7433 14.78L22.75 13.06L24.7567 14.78C24.8368 14.8537 24.9334 14.9128 25.0407 14.9538C25.148 14.9948 25.2639 15.0168 25.3814 15.0186C25.4989 15.0204 25.6156 15.0019 25.7245 14.9641C25.8335 14.9264 25.9325 14.8703 26.0155 14.7991C26.0986 14.7278 26.1641 14.643 26.2081 14.5496C26.2522 14.4562 26.2738 14.3562 26.2717 14.2555C26.2696 14.1548 26.2439 14.0555 26.1961 13.9635C26.1483 13.8715 26.0793 13.7887 25.9933 13.72L23.9867 12L25.9933 10.28C26.0793 10.2114 26.1483 10.1286 26.1961 10.0366C26.2439 9.94455 26.2696 9.84524 26.2717 9.74454C26.2738 9.64383 26.2522 9.5438 26.2081 9.45042C26.1641 9.35703 26.0986 9.27219 26.0155 9.20098C25.9325 9.12976 25.8335 9.07361 25.7245 9.03589C25.6156 8.99817 25.4989 8.97964 25.3814 8.98142C25.2639 8.9832 25.148 9.00524 25.0407 9.04623C24.9334 9.08722 24.8368 9.14633 24.7567 9.22001L22.75 10.94L20.7433 9.22001Z" fill="#1A1A1A"/>
</svg>
