<svg width="28" height="24" viewBox="0 0 28 24" fill="none" xmlns="http://www.w3.org/2000/svg">
<path d="M15.75 4.06001C15.75 2.72401 13.8647 2.05501 12.7633 3.00001L7.51334 7.50001H5.25934C3.92817 7.50001 2.555 8.16401 2.156 9.40501C1.88586 10.2506 1.74931 11.1233 1.75 12C1.75 12.898 1.89117 13.768 2.15834 14.595C2.55617 15.835 3.92934 16.5 5.2605 16.5H7.51217L12.7622 21C13.8647 21.945 15.75 21.276 15.75 19.94V4.06001ZM21.6813 5.10601C21.8454 4.96556 22.0678 4.88667 22.2997 4.88667C22.5315 4.88667 22.7539 4.96556 22.918 5.10601C27.3607 8.91301 27.3607 15.086 22.918 18.894C22.7521 19.0265 22.5327 19.0986 22.3061 19.0952C22.0794 19.0918 21.8631 19.013 21.7028 18.8756C21.5425 18.7382 21.4506 18.5528 21.4466 18.3585C21.4426 18.1642 21.5268 17.9762 21.6813 17.834C22.5752 17.0679 23.2843 16.1584 23.7681 15.1574C24.2519 14.1564 24.5009 13.0835 24.5009 12C24.5009 10.9165 24.2519 9.84364 23.7681 8.84263C23.2843 7.84163 22.5752 6.93211 21.6813 6.16601C21.5175 6.02539 21.4254 5.83476 21.4254 5.63601C21.4254 5.43726 21.5175 5.24664 21.6813 5.10601Z" fill="#1A1A1A"/>
<path d="M18.5873 7.75701C18.6686 7.68732 18.7651 7.63203 18.8712 7.59431C18.9774 7.55659 19.0913 7.53717 19.2062 7.53717C19.3212 7.53717 19.435 7.55659 19.5412 7.59431C19.6474 7.63203 19.7439 7.68732 19.8251 7.75701C20.4753 8.31418 20.991 8.97566 21.3429 9.70368C21.6947 10.4317 21.8758 11.212 21.8758 12C21.8758 12.788 21.6947 13.5683 21.3429 14.2963C20.991 15.0244 20.4753 15.6858 19.8251 16.243C19.66 16.3796 19.439 16.4551 19.2096 16.4533C18.9801 16.4515 18.7607 16.3725 18.5986 16.2334C18.4364 16.0943 18.3445 15.9061 18.3426 15.7095C18.3407 15.5128 18.429 15.3234 18.5885 15.182C19.076 14.7641 19.4627 14.2681 19.7265 13.7221C19.9904 13.1761 20.1262 12.591 20.1262 12C20.1262 11.4091 19.9904 10.8239 19.7265 10.2779C19.4627 9.73195 19.076 9.23587 18.5885 8.81801C18.4246 8.67738 18.3326 8.48676 18.3326 8.28801C18.3326 8.08926 18.4246 7.89864 18.5885 7.75801" fill="#1A1A1A"/>
</svg>
